<?xml version="1.0" standalone="no"?>
<!DOCTYPE svg PUBLIC "-//W3C//DTD SVG 20010904//EN"
 "http://www.w3.org/TR/2001/REC-SVG-20010904/DTD/svg10.dtd">
<svg version="1.0" xmlns="http://www.w3.org/2000/svg"
 width="4501.000000pt" height="4501.000000pt" viewBox="0 0 4501.000000 4501.000000"
 preserveAspectRatio="xMidYMid meet">

<g transform="translate(0.000000,4501.000000) scale(0.100000,-0.100000)"
fill="#000000" stroke="none">
<path d="M27320 37281 c-14 -5 -3240 -1865 -7170 -4133 -5121 -2957 -7157
-4137 -7187 -4167 -23 -23 -59 -76 -80 -118 l-38 -77 -3 -555 c-2 -306 0 -967
3 -1468 l7 -913 62 57 c88 81 128 106 878 538 l677 390 1 470 0 470 73 41 c39
23 158 91 262 151 233 135 9580 5532 10468 6044 351 203 643 369 648 369 5 0
9 -124 9 -306 0 -168 4 -304 9 -302 4 2 351 201 770 443 l761 440 -2 1275 c-3
1236 -4 1276 -22 1307 -29 48 -69 61 -126 44z"/>
<path d="M26710 30524 l-765 -442 -3 -871 c-1 -480 1 -870 5 -868 5 2 353 203
776 447 l767 442 -1 427 c-1 234 -4 624 -8 867 l-6 440 -765 -442z"/>
<path d="M34865 29586 c-212 -69 -434 -231 -575 -418 -107 -142 -171 -276
-215 -451 -23 -93 -48 -302 -39 -319 4 -5 92 -58 99 -58 1 0 5 40 8 88 32 449
291 838 692 1039 115 58 169 75 265 82 l85 6 -54 28 c-71 35 -164 37 -266 3z"/>
<path d="M34767 28943 c-4 -3 -7 -24 -7 -45 0 -60 -43 -175 -118 -316 -130
-245 -169 -357 -179 -517 l-5 -90 49 -27 50 -27 12 101 c18 149 50 238 172
483 84 170 111 234 118 283 16 104 -5 162 -59 162 -15 0 -30 -3 -33 -7z"/>
<path d="M34720 27921 c-184 -60 -335 -288 -317 -482 7 -75 29 -114 85 -149
25 -16 48 -27 50 -25 2 2 -4 17 -12 34 -23 43 -21 163 4 243 48 157 190 297
327 326 l37 8 -40 23 c-43 26 -96 35 -134 22z"/>
<path d="M33635 26806 c-126 -29 -247 -94 -304 -163 -81 -98 -116 -220 -116
-408 0 -156 10 -200 70 -299 29 -48 33 -61 24 -83 -5 -15 -8 -31 -6 -38 5 -11
126 -90 131 -84 1 2 17 82 35 177 32 165 34 172 59 179 36 9 69 51 77 98 12
80 43 126 173 259 71 72 133 139 138 149 13 23 183 45 219 29 21 -10 77 -74
112 -128 10 -16 11 -12 6 26 -8 61 -26 94 -83 151 -56 56 -145 103 -232 124
-95 22 -233 27 -303 11z"/>
<path d="M33820 25785 c0 -106 2 -115 60 -260 11 -29 13 -26 61 109 27 77 49
144 49 150 0 10 -147 106 -163 106 -4 0 -7 -47 -7 -105z"/>
<path d="M38844 25802 c-7 -4 31 -31 93 -67 276 -157 442 -418 471 -737 8 -88
12 -100 35 -118 127 -100 -49 -436 -219 -418 -27 3 -29 1 -32 -38 -3 -39 2
-46 77 -132 45 -50 81 -94 81 -97 0 -16 -118 -187 -157 -226 -42 -43 -48 -46
-77 -38 -72 21 -215 3 -259 -31 -22 -17 -26 -38 -53 -227 l-29 -208 -76 -95
c-82 -101 -266 -300 -278 -300 -8 0 -36 113 -51 210 -15 97 -12 341 5 450 13
78 56 224 89 302 6 13 1 19 -21 24 -57 12 -64 16 -74 38 -7 14 -7 31 0 49 12
32 50 36 108 12 20 -8 38 -14 40 -11 2 2 19 29 38 61 55 90 55 90 -82 89 -116
-2 -118 -2 -155 -33 -20 -17 -57 -57 -81 -89 -81 -105 -334 -538 -522 -892
-48 -91 -88 -166 -90 -168 -2 -2 -58 25 -126 59 -194 97 -380 179 -405 179
-29 0 -30 -11 -4 -35 11 -10 20 -28 20 -40 0 -39 -62 -117 -128 -164 l-64 -44
-28 22 c-34 25 -40 26 -40 8 0 -18 216 -234 309 -309 159 -128 323 -223 436
-253 112 -29 200 -15 284 45 l28 19 7 -57 c28 -239 28 -249 -5 -321 -44 -92
-85 -205 -108 -298 -45 -179 -50 -259 -55 -1028 -5 -726 -10 -880 -42 -1216
-15 -161 -15 -181 0 -231 58 -200 305 -390 651 -501 175 -56 215 -62 390 -61
178 1 299 21 460 76 116 39 273 119 311 159 l29 30 2 362 c1 375 12 632 40
1017 21 283 24 848 5 1000 -24 192 -60 341 -117 480 -20 49 -21 63 -14 135 31
278 101 491 276 835 131 259 193 460 193 624 -1 123 -44 240 -117 317 l-34 36
47 12 c111 28 228 96 326 189 l58 55 -40 19 c-116 58 -216 260 -266 541 -9 51
-19 181 -23 292 -6 192 -7 202 -34 257 -34 69 -90 121 -171 159 -60 28 -188
55 -206 44 -5 -3 -21 13 -36 36 -63 101 -206 198 -340 233 -63 16 -230 22
-250 8z"/>
<path d="M38495 25664 c-129 -86 -153 -113 -169 -187 -11 -46 3 -49 48 -12 56
46 105 65 165 65 l49 0 192 -197 c125 -130 207 -223 237 -271 l45 -73 -35 -82
c-64 -149 -69 -188 -35 -279 20 -57 79 -121 95 -104 3 3 0 24 -7 45 -30 93 11
219 102 309 l52 51 -13 83 c-39 255 -180 452 -419 587 -173 97 -238 111 -307
65z"/>
<path d="M34125 25476 c-10 -74 -1 -138 36 -263 20 -67 29 -117 27 -150 -3
-47 -4 -49 -52 -72 -33 -17 -72 -26 -123 -29 -70 -4 -74 -6 -69 -26 2 -11 12
-95 22 -186 40 -393 -26 -1002 -114 -1049 -74 -40 -283 22 -395 116 -24 21
-70 58 -102 83 -147 114 -328 385 -430 641 -14 35 -23 51 -20 34 6 -30 43
-122 153 -380 100 -236 169 -460 193 -628 l12 -83 -35 -85 c-155 -363 -207
-918 -144 -1539 39 -391 49 -576 43 -852 -3 -139 -8 -263 -12 -274 -23 -71
228 -202 483 -253 140 -28 253 -35 362 -22 166 21 216 41 495 198 247 140 403
254 457 333 30 44 30 46 24 140 -3 52 -13 167 -22 255 -11 114 -18 349 -24
820 -5 375 -13 688 -19 725 -45 271 -116 512 -202 681 -22 44 -32 77 -31 104
1 22 20 184 42 360 53 431 59 500 49 570 -19 137 -98 356 -202 560 -49 95 -74
133 -126 185 -72 71 -163 125 -228 136 l-41 6 -7 -56z"/>
<path d="M26063 25455 c0 -8 4 -12 9 -9 5 3 6 10 3 15 -9 13 -12 11 -12 -6z"/>
<path d="M33270 25365 c-137 -46 -329 -152 -356 -197 -4 -6 9 1 30 17 48 36
118 44 181 21 93 -36 194 -190 285 -436 41 -110 86 -210 94 -210 13 0 73 307
101 511 l6 45 -97 85 c-53 46 -115 107 -138 135 l-42 51 -64 -22z"/>
<path d="M32880 25119 c-7 -11 -10 -23 -7 -25 2 -2 9 7 15 21 14 30 7 33 -8 4z"/>
<path d="M24920 24806 c0 -2 7 -7 16 -10 8 -3 12 -2 9 4 -6 10 -25 14 -25 6z"/>
<path d="M18110 21915 c-1983 -1146 -3608 -2084 -3612 -2084 -5 -1 -8 224 -8
499 0 275 -2 500 -4 500 -2 0 -261 -148 -574 -330 -631 -364 -662 -381 -748
-406 -70 -20 -203 -23 -257 -5 -21 7 -39 11 -41 9 -1 -1 0 -601 3 -1331 l6
-1328 465 269 c731 422 2082 1202 4810 2777 1389 802 2696 1557 2905 1678 209
120 448 258 532 306 l152 86 1 723 c0 571 -3 722 -12 721 -7 0 -1635 -938
-3618 -2084z"/>
<path d="M23466 23978 c3 -5 10 -6 15 -3 13 9 11 12 -6 12 -8 0 -12 -4 -9 -9z"/>
<path d="M9983 22505 c-115 -31 -266 -110 -381 -199 -142 -109 -293 -297 -367
-459 -64 -139 -115 -356 -115 -492 0 -49 1 -51 46 -78 26 -15 48 -26 50 -24 2
2 9 50 14 106 36 377 218 698 518 914 155 111 309 177 442 186 l75 6 -54 28
c-63 31 -140 35 -228 12z"/>
<path d="M9853 21853 c-8 -3 -13 -23 -13 -51 0 -75 -15 -115 -122 -327 -115
-229 -143 -302 -163 -435 -23 -149 -23 -151 34 -182 27 -16 52 -28 55 -28 3 0
6 22 6 49 0 62 22 177 49 261 12 36 67 154 121 262 103 203 130 278 130 359 0
73 -43 114 -97 92z"/>
<path d="M9800 20826 c-98 -25 -210 -132 -268 -254 -33 -68 -37 -87 -40 -173
-5 -115 10 -158 70 -195 63 -40 74 -42 53 -11 -23 36 -31 141 -15 208 20 86
67 174 128 240 67 73 117 107 191 129 l55 16 -35 20 c-48 28 -86 34 -139 20z"/>
<path d="M5220 20823 c-138 -23 -337 -131 -408 -220 -73 -94 -92 -172 -91
-372 1 -132 1 -134 13 -81 40 179 127 344 253 480 47 52 102 92 249 187 11 6
17 11 14 11 -3 0 -16 -3 -30 -5z"/>
<path d="M5495 20741 c-51 -19 -192 -98 -268 -150 -130 -89 -257 -279 -301
-447 -20 -77 -31 -204 -18 -204 21 0 100 -92 127 -147 35 -72 45 -174 22 -219
-9 -18 -12 -36 -7 -43 12 -20 76 35 94 79 8 19 23 44 35 54 24 22 27 61 10
167 -6 39 -8 80 -5 92 3 12 30 50 60 84 58 66 81 117 74 163 -4 27 -2 29 55
45 87 24 274 101 332 137 27 16 64 43 81 59 34 33 43 29 62 -29 10 -29 28
-201 35 -322 l2 -44 20 29 c17 26 20 46 19 155 -1 205 -47 343 -150 447 -109
110 -173 132 -279 94z"/>
<path d="M9562 19610 c-143 -38 -279 -130 -341 -231 -41 -65 -81 -186 -81
-241 0 -24 11 -70 25 -103 13 -33 32 -90 42 -127 10 -38 23 -68 29 -68 7 0 19
-3 27 -6 9 -3 16 2 20 15 6 24 53 38 76 24 10 -6 17 -27 19 -57 3 -45 4 -46
38 -46 33 0 34 -1 34 -38 0 -21 -5 -64 -10 -95 -10 -50 -8 -62 11 -107 16 -38
20 -63 17 -104 l-4 -54 60 44 61 45 19 -27 c86 -118 160 -180 224 -190 98 -15
280 38 344 100 72 70 171 389 184 591 13 209 -34 313 -245 547 -111 122 -354
179 -549 128z"/>
<path d="M33991 19306 c-25 -66 -43 -204 -35 -260 4 -23 15 -55 25 -71 10 -17
23 -53 29 -80 6 -28 13 -58 16 -69 4 -11 2 -16 -4 -12 -16 9 35 -107 52 -120
21 -15 75 -133 83 -178 21 -134 -210 -143 -325 -12 -16 19 -61 79 -100 133
-38 54 -113 144 -166 201 -53 58 -96 112 -96 123 0 11 7 36 15 56 8 20 14 38
11 40 -5 6 -31 -38 -45 -77 -18 -51 -31 -215 -20 -253 8 -26 38 -299 39 -344
0 -6 14 -15 32 -18 39 -9 58 12 59 64 0 20 4 45 8 55 6 16 12 12 36 -30 78
-136 199 -268 300 -329 33 -19 103 -49 155 -66 174 -57 317 -38 357 45 24 51
8 91 -88 227 -44 63 -114 169 -154 235 l-73 122 28 5 c27 6 28 7 32 91 2 47 6
88 9 90 2 3 33 -2 69 -11 60 -16 70 -23 180 -128 63 -61 136 -125 162 -143 70
-48 211 -91 341 -104 130 -13 175 -7 217 28 24 21 30 34 30 65 0 22 -6 52 -14
67 -16 31 -139 151 -336 328 -217 196 -285 246 -137 102 100 -98 127 -130 127
-151 0 -38 -41 -62 -105 -61 -56 1 -110 25 -289 131 -60 36 -149 82 -197 104
-214 93 -224 103 -209 194 5 32 8 60 6 63 -2 2 -13 -21 -25 -52z"/>
<path d="M5542 18851 l-33 -100 38 -78 37 -78 1 -790 c0 -434 -3 -854 -8 -932
l-7 -142 94 -50 c51 -28 97 -51 102 -51 5 0 33 57 62 128 l52 127 -10 255
c-24 599 -73 1111 -134 1407 -8 37 -18 114 -21 169 l-7 102 -67 66 -67 66 -32
-99z"/>
<path d="M8927 18488 c-50 -35 -54 -43 -33 -71 12 -16 17 -12 49 43 20 33 35
60 34 60 -2 0 -24 -15 -50 -32z"/>
<path d="M38631 17790 c0 -8 4 -37 9 -65 12 -75 1 -86 -176 -171 -85 -40 -212
-107 -284 -149 -72 -42 -149 -82 -171 -90 -88 -31 -179 -9 -179 43 0 21 28 54
138 161 123 120 129 127 57 70 -94 -75 -135 -112 -358 -318 -186 -172 -217
-215 -201 -279 15 -60 59 -82 165 -82 156 0 324 43 426 109 32 20 110 87 174
148 107 104 119 112 178 128 35 9 66 14 69 10 3 -3 8 -44 10 -90 4 -80 6 -86
28 -91 13 -3 24 -9 24 -12 0 -13 -100 -176 -174 -285 -45 -65 -96 -141 -113
-169 -63 -100 -35 -170 82 -203 50 -15 68 -16 134 -5 237 38 392 144 543 370
39 58 72 107 73 109 2 2 7 -25 11 -59 8 -75 23 -93 64 -78 17 5 30 15 30 21 1
46 32 321 40 356 22 91 -16 281 -65 321 -17 14 -17 14 -2 -17 10 -18 17 -50
17 -71 0 -36 -8 -48 -98 -143 -54 -57 -130 -149 -169 -205 -118 -166 -184
-214 -296 -214 -78 0 -127 35 -127 93 0 23 76 185 140 297 21 37 24 47 10 30
-12 -14 -20 -18 -17 -10 3 9 10 42 17 75 7 32 22 72 34 88 30 41 29 192 -2
292 -23 74 -42 113 -41 85z"/>
<path d="M17786 17374 c-138 -33 -338 -151 -476 -280 -228 -216 -363 -506
-387 -835 l-6 -85 48 -28 c56 -34 65 -27 65 50 0 71 25 207 56 306 102 324
330 590 639 743 123 61 224 89 303 83 l52 -5 -38 22 c-85 48 -147 55 -256 29z"/>
<path d="M6127 16803 c-10 -47 -65 -119 -122 -159 l-55 -37 0 -108 c0 -93 -2
-110 -17 -118 -54 -28 -259 -99 -266 -92 -4 4 -7 55 -5 113 l3 105 -45 -10
c-25 -6 -142 -11 -260 -11 -187 0 -229 3 -320 23 -188 40 -334 98 -396 157
-37 35 -39 33 -49 -52 -4 -32 -16 -122 -28 -199 -38 -255 -27 -962 23 -1405
10 -91 33 -322 51 -515 31 -331 32 -357 20 -485 -28 -310 -25 -640 15 -1350
14 -248 19 -289 36 -318 45 -74 179 -117 345 -110 87 4 109 9 159 34 46 23 60
35 66 59 8 37 47 583 88 1235 16 267 33 508 37 535 l6 50 8 -35 c5 -19 10
-231 12 -470 4 -390 20 -837 33 -898 7 -36 80 -108 137 -137 44 -22 64 -25
148 -25 163 0 273 34 285 88 3 15 8 34 10 42 23 94 75 839 99 1430 9 201 20
457 25 570 6 113 13 468 17 790 5 498 3 614 -11 780 -9 107 -21 273 -25 368
-5 96 -11 176 -14 178 -2 3 -7 -8 -10 -23z"/>
<path d="M17657 16723 c-12 -3 -16 -12 -14 -31 8 -59 -26 -152 -133 -367 -119
-237 -152 -334 -165 -490 l-7 -80 56 -32 56 -32 0 48 c0 68 26 199 57 284 14
40 69 158 123 263 54 105 103 215 109 243 30 142 -1 215 -82 194z"/>
<path d="M36660 15817 c0 -3 19 -15 43 -27 193 -100 312 -199 403 -337 93
-138 142 -287 160 -478 6 -64 8 -67 17 -40 5 17 10 100 10 185 0 177 -18 266
-75 372 -68 129 -227 248 -393 296 -71 21 -165 37 -165 29z"/>
<path d="M17555 15676 c-150 -70 -268 -259 -269 -431 0 -92 22 -139 88 -182
28 -18 51 -31 53 -29 2 1 -4 17 -13 34 -38 78 -23 214 37 334 62 123 208 237
304 238 l40 0 -50 30 c-63 37 -120 39 -190 6z"/>
<path d="M36354 15686 c-102 -32 -194 -135 -235 -265 -32 -98 -38 -299 -13
-372 l19 -54 6 155 c5 146 16 200 39 200 5 0 46 -18 92 -40 46 -23 133 -57
195 -76 123 -39 152 -56 183 -112 12 -20 55 -63 96 -96 41 -32 76 -68 79 -80
2 -11 10 -54 16 -93 7 -40 17 -73 23 -73 8 0 10 -24 8 -75 -5 -82 6 -110 53
-141 35 -23 48 -10 29 28 -39 75 7 219 97 307 34 34 49 56 49 75 0 44 -46 31
-112 -32 -21 -20 -38 -30 -38 -22 0 18 74 85 111 100 35 15 37 33 8 126 -62
201 -185 350 -379 459 -164 93 -233 110 -326 81z"/>
<path d="M11050 15524 c0 -24 -40 -87 -73 -116 -122 -107 -419 -245 -621 -289
-226 -50 -565 -86 -658 -71 -65 10 -58 21 -78 -113 -12 -80 -45 -217 -100
-420 -57 -208 -88 -385 -120 -680 -6 -55 -12 -118 -15 -140 -9 -82 -30 -324
-40 -465 -4 -47 -9 -101 -11 -120 -2 -19 -6 -105 -8 -190 -5 -194 1 -246 114
-940 44 -273 132 -793 174 -1034 9 -49 21 -106 26 -126 14 -51 71 -114 135
-148 55 -30 56 -30 208 -29 133 2 158 5 199 24 25 11 52 31 58 44 10 17 11 80
5 258 -4 130 -8 254 -10 276 -1 22 -6 110 -9 195 -4 85 -9 178 -11 205 -2 28
-7 104 -10 170 -10 215 -36 547 -51 665 -32 241 -34 213 41 435 37 110 71 207
75 215 6 10 13 -2 24 -40 8 -30 36 -129 61 -220 52 -187 155 -530 286 -956 49
-160 98 -326 108 -368 11 -43 26 -88 35 -101 20 -30 73 -70 106 -80 14 -4 28
-12 31 -17 7 -11 210 -21 271 -13 72 10 80 21 87 111 18 245 -47 849 -134
1239 -34 153 -114 394 -170 512 l-43 92 13 53 c8 29 41 212 75 405 80 470 92
525 114 517 16 -6 32 46 17 55 -6 4 1 40 20 94 43 129 60 243 63 407 2 142 3
147 29 181 15 20 27 41 27 46 0 18 -43 23 -55 7 -9 -13 -15 0 -29 68 -10 45
-33 129 -51 185 -38 113 -104 250 -105 217z"/>
<path d="M17465 14329 c-96 -9 -146 -24 -243 -70 -96 -46 -186 -129 -219 -200
-12 -25 -26 -75 -32 -110 -5 -35 -15 -84 -21 -109 -25 -95 11 -333 66 -442 26
-51 26 -53 10 -103 -9 -29 -16 -57 -16 -63 0 -8 91 -72 104 -72 2 0 7 30 11
67 9 85 13 97 87 221 53 89 63 102 87 102 21 0 31 8 44 35 20 42 45 55 62 32
9 -12 19 -14 41 -8 28 7 29 9 38 95 8 81 7 92 -15 138 -28 60 -29 103 -4 142
31 46 128 112 217 146 167 65 244 50 316 -61 23 -35 52 -90 65 -121 12 -32 25
-58 29 -58 11 0 20 86 13 122 -4 18 -22 63 -41 99 -60 120 -151 177 -324 204
-118 18 -193 22 -275 14z"/>
<path d="M36438 13752 l-57 -47 0 -97 c-1 -53 -12 -166 -26 -250 -65 -409
-180 -1309 -169 -1321 2 -2 49 2 106 8 l103 10 2 105 c7 356 40 875 73 1168
l18 164 45 57 45 56 -39 95 c-22 52 -41 95 -42 96 -1 1 -28 -19 -59 -44z"/>
<path d="M17535 13278 c-8 -90 -9 -84 69 -283 19 -49 35 -100 36 -112 0 -28
10 -53 20 -53 13 0 133 371 124 379 -5 5 -52 34 -104 66 -52 32 -105 64 -117
72 -21 14 -21 13 -28 -69z"/>
<path d="M34322 12927 c-18 -18 -32 -37 -32 -41 0 -5 82 -198 183 -429 134
-310 190 -429 213 -451 25 -25 921 -549 1041 -610 l32 -16 35 37 c20 21 36 41
36 45 0 3 -20 52 -44 108 l-43 102 -114 -1 c-129 -2 -157 8 -287 92 -67 44
-67 45 -144 194 -43 82 -75 153 -71 156 14 14 53 6 80 -16 87 -72 149 -104
245 -126 165 -38 173 -27 103 136 -80 185 -92 207 -121 234 -32 30 -1049 619
-1068 619 -7 0 -26 -15 -44 -33z"/>
<path d="M5468 12576 c-32 -67 -21 -165 22 -196 37 -26 125 -47 234 -55 l89
-7 111 -76 c61 -41 137 -93 168 -114 89 -61 185 -90 298 -92 109 -1 141 11
186 70 50 65 40 184 -19 233 -14 11 -14 7 -1 -35 29 -97 8 -165 -65 -208 -31
-18 -40 -19 -105 -7 -133 22 -242 78 -466 235 -50 35 -99 57 -208 92 -81 26
-159 59 -181 75 -35 25 -40 34 -43 75 l-3 47 -17 -37z"/>
<path d="M4685 12280 c-5 -8 -11 -56 -13 -107 l-4 -92 73 -70 c41 -39 82 -71
91 -71 10 0 42 -38 82 -99 36 -54 86 -119 111 -145 78 -80 201 -124 376 -133
90 -5 117 -3 175 15 92 28 130 65 127 127 -1 24 -6 52 -12 62 -8 15 -10 10
-11 -24 0 -34 -5 -45 -27 -61 -58 -40 -124 -57 -223 -57 -120 0 -214 29 -317
98 -79 52 -121 99 -176 192 -20 33 -76 106 -126 163 -50 57 -94 115 -97 130
-19 85 -20 87 -29 72z"/>
<path d="M36231 11583 c11 -27 24 -52 29 -57 10 -10 130 63 130 80 0 10 -86
24 -151 24 l-28 0 20 -47z"/>
<path d="M10350 11515 c0 -13 45 -93 71 -126 33 -42 116 -87 274 -149 107 -43
113 -46 222 -151 140 -134 196 -165 280 -154 93 11 139 25 174 54 28 24 33 34
33 77 1 64 -24 156 -35 128 -4 -10 -8 -33 -8 -50 -1 -27 -7 -33 -43 -49 -24
-9 -78 -19 -120 -22 -70 -5 -83 -3 -132 21 -29 14 -104 62 -166 106 -97 68
-128 84 -214 111 -157 48 -259 99 -290 145 -14 21 -26 44 -26 51 0 7 -4 13
-10 13 -5 0 -10 -2 -10 -5z"/>
<path d="M37451 11435 c-3 -124 -178 -221 -502 -276 -133 -23 -367 -31 -491
-16 l-68 8 0 -110 c0 -60 -4 -112 -9 -115 -4 -3 -71 19 -147 49 l-139 53 -3
109 -3 108 -66 39 c-36 21 -82 53 -103 72 l-37 34 -7 -158 c-3 -86 -13 -229
-21 -317 -25 -276 -18 -1151 15 -1810 6 -110 15 -321 20 -470 22 -589 81
-1364 111 -1462 19 -61 153 -99 323 -91 107 4 154 26 223 101 35 37 42 54 47
98 16 145 29 507 32 909 2 245 8 461 12 480 l9 35 6 -50 c4 -27 23 -302 42
-610 36 -567 70 -1068 82 -1183 5 -53 10 -66 35 -87 41 -35 88 -47 206 -52
217 -11 362 54 376 170 6 43 17 245 37 642 17 334 15 871 -3 1025 -15 124 -14
129 23 530 20 223 44 466 53 540 29 261 40 499 41 895 0 365 -2 414 -23 555
-12 85 -27 187 -33 225 -5 39 -16 93 -23 120 l-14 50 -1 -40z"/>
<path d="M9037 10711 c-23 -39 -21 -95 4 -148 33 -69 151 -138 307 -178 54
-14 138 -21 367 -30 102 -3 129 -8 179 -30 167 -74 348 -67 437 16 l31 29 -7
102 c-7 97 -16 138 -33 138 -4 0 -7 -26 -7 -58 -1 -74 -20 -120 -54 -130 -41
-11 -279 -7 -591 11 -247 14 -301 20 -405 46 -107 26 -123 33 -148 63 -49 58
-70 107 -64 155 2 24 4 43 3 43 -1 0 -9 -13 -19 -29z"/>
<path d="M16875 9955 c-4 -33 -16 -101 -26 -151 -53 -263 -46 -479 27 -919 27
-164 65 -335 94 -431 25 -81 70 -378 115 -744 20 -162 40 -323 45 -357 7 -51
5 -76 -15 -155 -47 -185 -77 -399 -120 -853 -44 -471 -55 -731 -32 -771 14
-25 95 -114 103 -114 3 0 30 -11 61 -25 128 -59 244 -70 352 -32 l65 22 18 65
c49 172 164 604 213 798 144 578 165 746 166 1367 l0 410 59 -260 59 -260 -14
-65 c-43 -200 -91 -832 -96 -1275 -2 -148 2 -176 34 -240 44 -91 93 -119 237
-135 165 -20 259 -3 294 53 22 35 221 1016 270 1332 46 292 46 293 41 565 -3
146 -7 292 -10 325 -3 33 -9 137 -15 230 -17 277 -20 313 -41 467 -29 221
-106 593 -190 931 -22 87 -42 185 -46 218 l-6 61 -24 -51 c-26 -54 -99 -126
-170 -168 l-43 -25 0 -103 0 -104 -130 -50 c-72 -28 -136 -51 -144 -51 -9 0
-15 26 -20 97 -4 53 -8 99 -10 101 -2 1 -59 -2 -126 -8 -319 -27 -680 49 -867
183 -53 38 -74 68 -89 132 l-11 50 -8 -60z"/>
<path d="M36566 7080 c12 -76 -33 -107 -248 -174 -75 -24 -137 -50 -170 -73
-279 -191 -351 -228 -509 -261 -73 -15 -77 -15 -110 4 -73 43 -101 141 -65
229 18 42 7 46 -20 8 -60 -82 -56 -169 10 -241 51 -57 152 -74 275 -48 103 22
175 58 333 170 75 53 148 100 163 106 14 5 74 14 132 20 192 18 239 45 249
146 5 49 3 69 -14 107 -26 58 -34 60 -26 7z"/>
<path d="M37380 6743 c0 -56 -7 -69 -99 -173 -84 -94 -118 -140 -161 -214 -40
-67 -120 -144 -194 -187 -62 -35 -181 -74 -257 -83 -71 -9 -182 14 -249 50
-49 26 -50 28 -50 73 0 67 -22 37 -24 -32 -1 -66 13 -85 92 -124 100 -49 298
-43 457 14 113 40 167 90 267 245 44 68 70 98 88 103 14 3 58 38 98 78 l72 71
0 71 c0 73 -14 140 -30 150 -6 4 -10 -14 -10 -42z"/>
<path d="M17928 5943 c-9 -10 -20 -27 -26 -38 -15 -29 -25 -129 -18 -170 8
-39 32 -53 189 -105 75 -26 103 -30 193 -30 l104 0 73 -67 c40 -38 92 -81 114
-96 87 -60 268 -102 410 -96 69 4 85 8 116 32 59 45 89 127 66 183 l-12 29 -7
-30 c-12 -51 -38 -104 -64 -130 -33 -33 -84 -33 -209 0 -130 33 -222 72 -400
165 -84 43 -199 95 -256 115 -134 47 -213 87 -241 122 -19 24 -21 36 -15 80 3
29 5 53 2 53 -2 0 -11 -8 -19 -17z"/>
<path d="M16893 5437 c-7 -16 -13 -64 -13 -108 l0 -81 73 -68 c60 -56 79 -81
102 -137 38 -93 108 -205 151 -242 48 -43 158 -96 251 -123 102 -29 272 -32
350 -5 96 33 139 116 98 187 -14 24 -14 23 -15 -27 0 -43 -4 -55 -26 -72 -80
-63 -320 -48 -480 31 -86 42 -145 103 -272 285 -163 234 -196 290 -202 342
l-5 45 -12 -27z"/>
</g>
</svg>
